<?xml version="1.0" standalone="no"?> <!DOCTYPE svg PUBLIC "-//W3C//DTD SVG 1.0//EN" "http://www.w3.org/TR/2001/REC-SVG-20010904/DTD/svg10.dtd" > <svg xmlns="http://www.w3.org/2000/svg" width="100%" height="100%">
<defs >
<font id="exo-bold" horiz-adv-x="542" ><font-face
    font-family="Exo"
    units-per-em="1000"
    panose-1="2 0 8 3 0 0 0 0 0 0"
    ascent="1002"
    descent="-287"
    alphabetic="0" />
<missing-glyph horiz-adv-x="709" d="M76 0V531H634V0H76ZM611 518H100L357 276L611 518ZM90 22L346 266L90 507V22ZM103 13H610L357 256L103 13ZM620 506L368 266L620 25V506Z" />
<glyph unicode=" " glyph-name="space" horiz-adv-x="250" />
<glyph unicode="!" glyph-name="exclam" horiz-adv-x="273" d="M65 731H206L191 196H77L65 731ZM67 23V113Q67 138 91 138H179Q202 138 202 113V23Q202 0 179 0H91Q67 0 67 23Z" />
<glyph unicode="&quot;" glyph-name="quotedbl" horiz-adv-x="444" d="M245 665V732H380V665L370 531H256L245 665ZM65 665V732H200V665L190 531H76L65 665Z" />
<glyph unicode="#" glyph-name="numbersign" horiz-adv-x="721" d="M278 306L404 305L424 427H299L278 306ZM15 210L30 306H182L203 427H49L65 523H220L257 732H353L316 523H440L476 732H572L536 523H707L693 427H520L500 305H672L659 209H480L443 0H347L384 209L260
210L223 0H127L164 210H15Z" />
<glyph unicode="$" glyph-name="dollar" horiz-adv-x="570" d="M42 486V549Q43 733 238 738V824H323V737Q413 732 502 709V600Q371 609 278 609Q227 611 205 598T182 538V502Q182 463 201 448T262 432H355Q397 432 429 420T479 388T509 341T525 290T529 238V189Q529
-12 323 -8V-90H238V-6Q143 -1 65 22V130Q245 121 298 121Q389 121 389 184V223Q389 257 375 274T322 292H231Q182 292 146 306T91 342T60 391T45 441T42 486Z" />
<glyph unicode="%" glyph-name="percent" horiz-adv-x="962" d="M661 150Q661 123 671 112T709 101H782Q814 101 823 112T833 150V239Q833 268 822 278T784 288H711Q682 288 672 278T661 239V150ZM563 133V255Q563 322 593 354T697 386H798Q869 386 900 354T931
255V133Q931 67 900 35T796 3H695Q624 3 594 35T563 133ZM208 0L655 732H755L312 0H208ZM130 496Q130 469 140 458T178 447H252Q283 447 292 458T302 496V585Q302 614 292 624T254 634H180Q151 634 141 624T130 585V496ZM32 480V602Q32 668 63 700T167 732H268Q339
732 369 700T400 602V480Q400 413 370 381T266 349H165Q93 349 63 381T32 480Z" />
<glyph unicode="&amp;" glyph-name="ampersand" horiz-adv-x="679" d="M180 162Q194 144 213 134T255 125T299 147L350 196L249 330L197 284Q129 226 180 162ZM65 82Q14 159 28 234T110 369L179 430L128 504Q90 559 96 607T134 690T207 730Q249 736 288 736T365
732T425 723T484 710V608H320Q263 608 255 585T284 510L453 279L574 393L623 334L563 227L526 183L662 0H498L427 96L362 38Q327 7 272 -2T159 9T65 82Z" />
<glyph unicode="&apos;" glyph-name="quotesingle" horiz-adv-x="224" d="M42 665V732H183V665L173 531H53L42 665Z" />
<glyph unicode="(" glyph-name="parenleft" horiz-adv-x="377" d="M57 326Q57 438 84 545T144 716T204 820L232 860H363L337 815Q311 770 280 701T223 527T197 326Q197 220 223 114T280 -59T337 -168L363 -210H232L214 -190Q196 -170 170 -125T119 -20T75 132T57 326Z" />
<glyph unicode=")" glyph-name="parenright" horiz-adv-x="377" d="M15 -210L41 -168Q67 -126 98 -60T155 113T181 326Q181 423 155 527T98 700T41 815L15 860H146L174 820Q201 781 233 717T293 545T321 326Q321 225 303 133T260 -19T208 -124T164 -190L146 -210H15Z" />
<glyph unicode="*" glyph-name="asterisk" horiz-adv-x="427" d="M239 571L359 650L390 603L294 506L239 571ZM190 467L237 538L349 448L317 403L190 467ZM166 720L220 739L287 617L208 584L166 720ZM95 416L119 553L202 532L148 399L95 416ZM38 566V622L177 646L182
561L38 566Z" />
<glyph unicode="+" glyph-name="plus" horiz-adv-x="483" d="M34 297V415H182V564H300V415H450V297H300V148H182V297H34Z" />
<glyph unicode="," glyph-name="comma" horiz-adv-x="261" d="M65 25V112Q65 139 90 139H174Q198 139 198 112V-11Q198 -49 178 -69T134 -91T90 -91L70 -88V-40Q101 -40 101 -14V0H90Q65 0 65 25Z" />
<glyph unicode="-" glyph-name="hyphen" horiz-adv-x="354" d="M20 231V349H334V231H20Z" />
<glyph unicode="." glyph-name="period" horiz-adv-x="263" d="M65 23V113Q65 138 89 138H175Q200 138 200 113V23Q200 0 175 0H89Q65 0 65 23Z" />
<glyph unicode="/" glyph-name="slash" horiz-adv-x="456" d="M15 -72L296 770H441L160 -72H15Z" />
<glyph unicode="0" glyph-name="zero" horiz-adv-x="630" d="M193 201Q193 129 268 129H365Q402 129 420 145T438 200V532Q438 603 370 603H265Q224 603 209 582T193 532V201ZM53 178V548Q53 636 102 684T237 732H401Q495 732 536 683T578 554V178Q578 91 532
46T400 0H236Q150 0 102 45T53 178Z" />
<glyph unicode="1" glyph-name="one" horiz-adv-x="371" d="M30 558V649L172 732H311V0H171V593L30 558Z" />
<glyph unicode="2" glyph-name="two" horiz-adv-x="588" d="M30 612V716Q178 742 334 742Q441 742 496 678T551 516Q551 351 275 129H551V0H38V123Q82 153 137 196T257 297T366 415T410 515Q410 565 382 588T290 612H30Z" />
<glyph unicode="3" glyph-name="three" horiz-adv-x="583" d="M23 605V706Q64 720 120 727T230 734T346 734Q429 732 478 685T527 558V506Q527 392 451 364Q527 331 527 214V172Q527 85 479 39T339 -7Q304 -7 272 -7T206 -6T144 -3T84 6T29 21L30 123H284Q341
123 363 135T386 191V223Q386 265 363 280T290 298L91 306V418L290 428Q344 431 366 446T388 500V536Q388 605 290 605H23Z" />
<glyph unicode="4" glyph-name="four" horiz-adv-x="620" d="M15 224L276 732H430L211 292H392V459L424 536H532V292H606V184L532 160V2H392V160H49L15 224Z" />
<glyph unicode="5" glyph-name="five" horiz-adv-x="596" d="M58 20V130H340Q413 130 413 201V268Q413 283 411 293T403 315T382 333T346 339H252Q191 339 191 280H59L81 732H526V603H216L208 438Q234 458 277 462Q307 466 387 462Q471 458 512 410T553 280V177Q553
128 536 92T491 35T431 6T367 -4Q265 -4 209 0T58 20Z" />
<glyph unicode="6" glyph-name="six" horiz-adv-x="608" d="M190 321Q190 277 193 247T205 188T234 143T285 128H361Q395 128 410 140T425 190V257Q425 294 411 307T364 321H190ZM50 384Q50 479 64 549T103 657T158 713T222 735Q360 747 540 715V609H290Q190 609
190 424Q273 444 392 444Q491 444 527 400T564 274V164Q564 -1 387 -1H244Q197 -1 164 15T104 73T64 191T50 384Z" />
<glyph unicode="7" glyph-name="seven" horiz-adv-x="554" d="M23 603V732H494L532 668L287 0H134L359 603H23Z" />
<glyph unicode="8" glyph-name="eight" horiz-adv-x="624" d="M197 494Q197 432 264 432H364Q403 432 415 448T428 494V541Q428 583 412 598T363 614H269Q230 614 214 601T197 541V494ZM197 183Q197 152 213 138T269 124H362Q428 124 428 183V253Q428 315 365
315H264Q197 315 197 253V183ZM57 168V241Q57 286 78 316T136 354Q103 368 85 393T62 442T57 499V564Q57 737 244 737H395Q482 737 525 696T568 563V510Q568 498 566 483T557 448T534 413T493 394Q515 390 531 374T554 337T565 296T568 257V171Q568 118 553 82T511
30T457 7T394 0H244Q192 0 155 13T100 43T71 86T59 129T57 168Z" />
<glyph unicode="9" glyph-name="nine" horiz-adv-x="608" d="M185 477Q185 440 199 427T246 413H420Q420 457 417 487T405 546T376 591T325 606H248Q214 606 200 594T185 544V477ZM46 461V570Q46 735 223 735H366Q413 735 446 719T506 661T546 543T560 350Q560
255 546 186T506 78T452 21T388 -1Q231 -15 70 19V125H320Q352 125 373 142T404 190T416 247T420 311Q339 290 218 290Q120 290 83 335T46 461Z" />
<glyph unicode=":" glyph-name="colon" horiz-adv-x="263" d="M65 416V506Q65 531 89 531H175Q200 531 200 506V416Q200 393 175 393H89Q65 393 65 416ZM65 23V113Q65 138 89 138H175Q200 138 200 113V23Q200 0 175 0H89Q65 0 65 23Z" />
<glyph unicode=";" glyph-name="semicolon" horiz-adv-x="264" d="M66 417V507Q66 532 90 532H176Q201 532 201 507V417Q201 394 176 394H90Q66 394 66 417ZM65 25V112Q65 139 90 139H174Q198 139 198 112V-11Q198 -49 178 -69T134 -91T90 -91L70 -88V-40Q101
-40 101 -14V0H90Q79 0 72 7T65 25Z" />
<glyph unicode="&lt;" glyph-name="less" horiz-adv-x="450" d="M38 288V417L413 562V432L187 353L413 265V134L38 288Z" />
<glyph unicode="=" glyph-name="equal" horiz-adv-x="467" d="M20 399V517H447V399H20ZM20 184V302H447V184H20Z" />
<glyph unicode="&gt;" glyph-name="greater" horiz-adv-x="450" d="M38 134V265L264 353L38 432V562L413 417V288L38 134Z" />
<glyph unicode="?" glyph-name="question" d="M162 23V113Q162 138 186 138H273Q297 138 297 113V23Q297 0 273 0H186Q162 0 162 23ZM15 609V714Q172 744 297 739Q404 739 458 682T513 543V470Q513 266 286 285V195H173V390H287Q374 394 374 472V525Q374 569 348
589T264 609H15Z" />
<glyph unicode="@" glyph-name="at" horiz-adv-x="868" d="M348 142Q348 126 361 115T395 104Q464 102 511 146V226L392 215Q348 211 348 169V142ZM50 11V315Q50 343 55 368T73 421T109 467T169 499T256 512H448Q484 512 511 507T566 486T608 438T623 356V0H533L513
58L500 48Q488 37 470 25T421 2T358 -9Q298 -10 264 29T230 124V166Q230 233 268 269T376 305H511V348Q511 379 497 389T449 400H256Q212 400 187 382T162 310V22Q162 -39 190 -62T256 -86H589Q647 -86 669 -60T692 22V479Q692 535 664 565T589 596H185V681Q321
709 489 708H589Q682 707 743 652T804 479V22Q804 -200 594 -200H256Q164 -200 107 -149T50 11Z" />
<glyph unicode="A" glyph-name="A" horiz-adv-x="692" d="M274 286H444L362 548L274 286ZM34 0L281 732H440L678 0H529L477 162H237L184 0H34Z" />
<glyph unicode="B" glyph-name="B" horiz-adv-x="604" d="M201 442H354Q431 442 431 525T354 608H201V442ZM201 124H360Q441 124 441 221Q441 266 421 295T360 324H201V124ZM61 0V732H363Q469 732 519 678T569 536Q569 480 544 435T469 380Q517 371 549 327T581
215Q581 0 365 0H61Z" />
<glyph unicode="C" glyph-name="C" horiz-adv-x="571" d="M42 368Q42 461 53 526T91 641T168 715T291 740Q433 740 546 707V597L532 598Q518 600 495 602T445 606T384 609T324 611Q281 611 258 604T215 572T189 498T182 366Q182 236 211 180T324 123Q390 123 468
127L546 131V22Q449 -9 291 -6Q158 -5 100 90T42 368Z" />
<glyph unicode="D" glyph-name="D" horiz-adv-x="662" d="M201 125H361Q486 125 486 364Q486 503 455 555T361 608H201V125ZM61 0V732H372Q626 732 626 363Q626 194 564 97T372 0H61Z" />
<glyph unicode="E" glyph-name="E" horiz-adv-x="567" d="M58 144V580Q58 625 72 657T112 704T162 726T217 732L358 727Q499 722 539 716V600H250Q226 600 214 591T200 572T198 544V430L494 420V304L198 295V181Q198 162 203 151T219 135T237 130T260 129H539V14Q503
9 365 3L227 -3Q198 -4 173 0T119 18T75 64T58 144Z" />
<glyph unicode="F" glyph-name="F" horiz-adv-x="567" d="M58 0V578Q58 660 104 697T217 732L358 727Q499 722 539 716V600H250Q226 600 214 591T200 572T198 544V430L494 420V304L198 295V0H58Z" />
<glyph unicode="G" glyph-name="G" horiz-adv-x="614" d="M42 301T42 370T47 491T69 591T111 671T180 721T281 740Q432 740 562 708V599L523 604Q484 608 424 612T314 616Q234 616 208 563T182 368Q182 224 206 176T307 126Q338 126 369 137T417 160L433 172V303H331V392Q388
416 505 416Q549 416 573 414V0H473L435 49Q381 -1 280 -5Q220 -7 176 12T107 63T66 146T47 249Z" />
<glyph unicode="H" glyph-name="H" horiz-adv-x="636" d="M61 0V732H201V418H452V732H592V0H452V290H201V0H61Z" />
<glyph unicode="I" glyph-name="I" horiz-adv-x="245" d="M61 0V732H201V0H61Z" />
<glyph unicode="J" glyph-name="J" horiz-adv-x="356" d="M27 23L29 132Q75 128 106 129T155 153T172 226V732H312V165Q312 52 259 18Q219 -7 143 -5T27 23Z" />
<glyph unicode="K" glyph-name="K" horiz-adv-x="628" d="M61 0V732H195V426H254L440 732H603L379 365L603 0H440L254 302H196V0H61Z" />
<glyph unicode="L" glyph-name="L" horiz-adv-x="539" d="M61 142V732H201V181Q201 162 206 151T222 135T240 130T263 129H514V0H213Q61 0 61 142Z" />
<glyph unicode="M" glyph-name="M" horiz-adv-x="847" d="M42 0L106 732H301L423 232L544 732H738L806 0H668L620 489L502 0H346L223 489L180 0H42Z" />
<glyph unicode="N" glyph-name="N" horiz-adv-x="678" d="M61 0V732H203L493 259V732H633V0H493L202 468V0H61Z" />
<glyph unicode="O" glyph-name="O" horiz-adv-x="671" d="M190 361Q190 259 203 210T247 143T344 125Q406 125 437 143T483 211T498 361Q498 446 491 495T462 570T416 601T344 608Q307 608 286 605T244 588T213 549T197 477T190 361ZM50 361Q50 461 65 531T104
641T169 703T248 731T344 737Q393 737 426 733T496 716T556 678T600 611T629 508T638 361Q638 266 624 199T587 93T525 32T445 3T344 -4Q294 -4 260 0T189 16T129 54T87 118T59 218T50 361Z" />
<glyph unicode="P" glyph-name="P" horiz-adv-x="602" d="M191 394H355Q391 394 409 418T428 505Q427 608 355 608H191V394ZM51 0V732H366Q406 732 437 724T501 694T551 624T569 506Q569 442 556 396T523 326T474 288T420 272T366 270Q338 271 267 279T191 290V0H51Z" />
<glyph unicode="Q" glyph-name="Q" horiz-adv-x="671" d="M300 -33H379Q416 -95 542 -61V-174Q504 -184 463 -179T386 -160T327 -112T300 -33ZM190 361Q190 258 203 210T247 143T343 125Q405 125 436 143T483 211T498 361Q498 446 491 495T462 570T415 601T343
608Q306 608 285 605T243 588T212 549T196 477T190 361ZM50 361Q50 461 65 531T103 641T167 703T246 731T343 737Q384 737 414 734T477 722T532 697T576 653T610 586T630 490T638 361Q638 282 629 222T601 123T559 58T499 19T428 1T343 -4Q306 -4 279 -2T222 6T171
23T129 53T95 99T71 163T55 249T50 361Z" />
<glyph unicode="R" glyph-name="R" horiz-adv-x="607" d="M192 401H358Q397 401 413 421T430 504Q430 563 412 585T358 608H192V401ZM51 0V732H371Q465 732 518 680T571 504Q571 452 562 413T543 354T513 318T483 298T454 288L593 0H435L314 277L191 291V0H51Z" />
<glyph unicode="S" glyph-name="S" horiz-adv-x="590" d="M50 486V549Q50 651 102 693T248 738Q421 741 531 709V599Q424 609 286 609Q233 610 212 598T190 538V502Q190 460 207 446T268 432H384Q435 432 471 414T524 365T549 303T557 238V189Q557 130 540 89T493
28T429 0T355 -8Q176 -8 72 22V132Q182 121 327 121Q417 121 417 184V223Q417 258 403 275T351 292H239Q50 292 50 486Z" />
<glyph unicode="T" glyph-name="T" horiz-adv-x="593" d="M31 603V732H572V603H369V0H229V603H31Z" />
<glyph unicode="U" glyph-name="U" horiz-adv-x="664" d="M61 320V732H201V320Q201 237 215 195T258 138T343 124Q417 124 448 164T479 320V732H620V320Q620 267 614 224T600 149T575 92T545 52T508 25T469 8T427 -1T385 -4T343 -5Q241 -5 200 8Q98 41 71 186Q61
243 61 320Z" />
<glyph unicode="V" glyph-name="V" horiz-adv-x="685" d="M34 732H183L346 184L518 732H667L426 0H264L34 732Z" />
<glyph unicode="W" glyph-name="W" horiz-adv-x="992" d="M34 732H183L345 189L477 732H627L576 543L692 186L826 732H974L773 0H611L512 300L426 0H264L34 732Z" />
<glyph unicode="X" glyph-name="X" horiz-adv-x="641" d="M34 732H189L327 482L468 732H623L403 367L618 0H463L327 246L192 0H37L252 367L34 732Z" />
<glyph unicode="Y" glyph-name="Y" horiz-adv-x="656" d="M34 732H186L329 381L486 732H638L397 227V0H257V227L34 732Z" />
<glyph unicode="Z" glyph-name="Z" horiz-adv-x="556" d="M27 0V129L362 603H27V732H531V603L212 129H531V0H27Z" />
<glyph unicode="[" glyph-name="bracketleft" horiz-adv-x="333" d="M65 -10V654Q65 842 234 842H319V724H267Q205 724 205 637V-5Q205 -92 267 -92H319V-210H234Q65 -210 65 -10Z" />
<glyph unicode="\" glyph-name="backslash" horiz-adv-x="456" d="M15 770H160L441 -72H296L15 770Z" />
<glyph unicode="]" glyph-name="bracketright" horiz-adv-x="333" d="M15 -92H68Q130 -92 130 -5V637Q130 724 68 724H15V842H101Q148 842 182 827T234 785T261 726T270 654V-10Q270 -210 101 -210H15V-92Z" />
<glyph unicode="^" glyph-name="asciicircum" horiz-adv-x="384" d="M38 531L146 666H250L346 531H253L195 591L132 531H38Z" />
<glyph unicode="_" glyph-name="underscore" horiz-adv-x="674" d="M20 -1V117H654V-1H20Z" />
<glyph unicode="`" glyph-name="grave" horiz-adv-x="243" d="M15 670H138L228 531H137L15 670Z" />
<glyph unicode="a" glyph-name="a" horiz-adv-x="519" d="M170 155Q170 125 183 116T220 106Q246 106 276 116T324 138L342 148V245L213 235Q170 232 170 181V155ZM30 135V185Q30 249 68 290T186 331H342V365Q342 405 325 417T271 430Q206 430 48 419V506Q139
541 290 541Q382 541 432 503T482 370V0H371L342 58Q334 44 284 19T180 -6Q108 -4 69 37T30 135Z" />
<glyph unicode="b" glyph-name="b" horiz-adv-x="556" d="M186 146Q237 114 310 114Q345 114 362 148T379 268Q379 364 363 396T310 429Q237 429 186 409V146ZM46 0V785H185V504Q258 539 346 539Q448 539 483 471T519 263Q519 134 479 64T346 -6Q303 -6 259 12T186
54L161 0H46Z" />
<glyph unicode="c" glyph-name="c" horiz-adv-x="494" d="M38 266Q38 371 61 432T121 515T213 536Q361 536 457 504V418L393 421Q329 424 273 424Q244 424 230 421T202 403T183 355T178 263Q178 165 197 137T273 108T397 112L464 117V29Q429 11 384 3T298 -5T213
-5Q173 -5 144 7T89 48T51 131T38 266Z" />
<glyph unicode="d" glyph-name="d" horiz-adv-x="556" d="M178 268Q178 183 195 149T248 114Q321 114 372 146V409Q319 429 248 429Q211 429 195 397T178 268ZM38 263Q38 332 44 378T69 463T122 520T211 539Q297 539 372 504V785H512V0H396L372 54Q296 -6 211
-6Q118 -6 78 63T38 263Z" />
<glyph unicode="e" glyph-name="e" horiz-adv-x="525" d="M178 309H311Q355 309 355 349Q355 400 342 414T278 428Q245 428 230 426T201 412T182 376T178 309ZM38 268Q38 354 50 406T92 487T162 525T270 535Q335 535 371 530T439 505T482 446T495 342Q495 208
347 208H178Q178 142 202 125T290 107Q416 107 485 118V23Q410 -5 213 -5Q114 -5 76 57T38 268Z" />
<glyph unicode="f" glyph-name="f" horiz-adv-x="403" d="M15 424V514L98 531V630Q98 704 134 745T255 786Q330 786 389 762V679L293 680Q272 680 261 676T245 659T239 635T238 597V531H359V424H238V0H98V424H15Z" />
<glyph unicode="g" glyph-name="g" horiz-adv-x="560" d="M179 344Q179 262 243 262H299Q367 262 367 344Q365 386 350 403T298 420H245Q206 420 193 400T179 344ZM181 -99Q181 -135 196 -146T244 -158H326Q361 -158 372 -144T383 -102V-63Q383 -15 331 -14H223L181
-11V-99ZM35 102Q35 177 97 197Q39 234 39 344Q39 533 223 533H546V450L487 432Q492 419 496 409T504 378T507 328Q507 296 499 267T473 210T416 166T325 149H202Q162 149 162 126Q162 99 202 99H365Q439 99 480 60T522 -58V-116Q522 -182 484 -226T356 -270H206Q132
-270 86 -231T40 -116V-49L87 0Q35 30 35 102Z" />
<glyph unicode="h" glyph-name="h" horiz-adv-x="550" d="M46 0V783H185V474Q216 497 232 507T282 528T354 540Q513 540 513 354V0H373V356Q373 428 314 428Q274 428 247 418T186 382V0H46Z" />
<glyph unicode="i" glyph-name="i" horiz-adv-x="227" d="M43 0V531H183V0H43ZM38 610V698Q38 724 62 724H167Q189 724 189 698V610Q189 587 167 587H62Q38 587 38 610Z" />
<glyph unicode="j" glyph-name="j" horiz-adv-x="242" d="M52 -270V531H192V-4Q194 -184 155 -270H52ZM46 610V698Q46 724 70 724H175Q198 724 198 698V610Q198 587 175 587H70Q46 587 46 610Z" />
<glyph unicode="k" glyph-name="k" horiz-adv-x="557" d="M46 0V782H186V353H215L365 531H543L344 300L543 0H376L215 246H186V0H46Z" />
<glyph unicode="l" glyph-name="l" horiz-adv-x="313" d="M46 189V783H186V211Q186 158 197 137T232 107L264 96Q295 86 299 86V0H183Q115 0 81 43T46 189Z" />
<glyph unicode="m" glyph-name="m" horiz-adv-x="875" d="M46 0V531H158L186 474Q220 499 234 508T281 528T351 539Q454 539 489 470Q582 539 680 539Q838 539 838 352V0H698V354Q698 426 639 426Q559 426 509 384Q509 382 509 369T510 353V0H370V354Q370 426
311 426Q272 426 246 416T186 381V0H46Z" />
<glyph unicode="n" glyph-name="n" horiz-adv-x="550" d="M46 0V531H158L186 474Q218 497 233 507T282 528T354 540Q513 540 513 354V0H373V356Q373 428 314 428Q274 428 247 418T186 382V0H46Z" />
<glyph unicode="o" glyph-name="o" horiz-adv-x="560" d="M178 258Q178 190 189 158T219 117T280 108Q324 108 343 116T372 156T382 258Q382 316 379 347T362 396T332 419T280 424Q235 424 216 413T187 368T178 258ZM38 258Q38 418 91 477T280 536Q417 536 469
476T522 258Q522 109 471 52T280 -5Q144 -5 91 54T38 258Z" />
<glyph unicode="p" glyph-name="p" horiz-adv-x="556" d="M185 122Q238 102 310 102Q346 102 362 134T379 262Q379 348 362 382T310 417Q236 417 185 385V122ZM46 -270V531H161L185 478Q214 501 258 519T346 537Q519 537 519 268Q519 204 513 159T488 73T435 13T346
-8Q259 -8 185 26V-270H46Z" />
<glyph unicode="q" glyph-name="q" horiz-adv-x="555" d="M178 272Q178 234 178 215T183 169T196 131T220 109T259 100Q316 100 370 122V430H260Q232 430 214 416T189 373T180 324T178 272ZM38 268Q38 537 232 537Q307 537 388 528T510 507V-270H370V29Q313 -10
232 -10Q123 -10 81 58T38 268Z" />
<glyph unicode="r" glyph-name="r" horiz-adv-x="417" d="M46 0V531H164L186 464Q258 536 338 536Q383 536 397 530V395Q355 398 320 398Q272 398 241 386T186 339V0H46Z" />
<glyph unicode="s" glyph-name="s" horiz-adv-x="508" d="M30 347V393Q30 536 168 536Q406 536 452 509V421H211Q186 421 178 413T170 384V360Q170 344 176 337T189 328T211 326H337Q409 326 443 289T478 188V134Q478 59 441 27T348 -5Q97 -5 52 24V111H303Q338
111 338 145V170Q338 188 331 196T303 204H179Q30 204 30 347Z" />
<glyph unicode="t" glyph-name="t" horiz-adv-x="381" d="M15 425V503L101 532L124 680H241V532H360V425H241V212Q241 158 252 137T286 107L318 96Q349 86 353 86V0H231Q101 0 101 190V425H15Z" />
<glyph unicode="u" glyph-name="u" horiz-adv-x="550" d="M38 178V531H178V175Q178 104 237 104Q277 104 305 114T365 150V531H505V0H392L365 56Q359 52 330 34T289 11T252 -2T196 -9Q38 -9 38 178Z" />
<glyph unicode="v" glyph-name="v" horiz-adv-x="564" d="M15 531H165L281 164L400 531H550L357 0H200L15 531Z" />
<glyph unicode="w" glyph-name="w" horiz-adv-x="826" d="M15 531H165L271 164L366 531H506L469 388L557 164L662 531H812L640 0H484L404 192L344 0H185L15 531Z" />
<glyph unicode="x" glyph-name="x" horiz-adv-x="572" d="M18 0L202 266L18 531H188L285 372L385 531H554L368 263L546 0H385L286 157L188 0H18Z" />
<glyph unicode="y" glyph-name="y" horiz-adv-x="578" d="M16 531H163L255 159Q260 140 272 131T293 121T308 120L414 531H560L376 -168L303 -270H203L278 0Q156 0 120 135L16 531Z" />
<glyph unicode="z" glyph-name="z" horiz-adv-x="474" d="M23 413V531H452V413L224 119H452V1H38V118L276 413H23Z" />
<glyph unicode="{" glyph-name="braceleft" horiz-adv-x="321" d="M15 281V386Q36 388 49 391T76 406T89 439V656Q89 741 143 791T306 842V724Q265 724 247 701T229 612V431Q229 346 133 334Q177 326 202 302T228 240V0Q228 -50 246 -74T306 -98V-210Q189 -210
139 -166T88 -38V228Q88 255 67 269T15 281Z" />
<glyph unicode="|" glyph-name="bar" horiz-adv-x="247" d="M65 -72V770H183V-72H65Z" />
<glyph unicode="}" glyph-name="braceright" horiz-adv-x="321" d="M15 -98Q57 -99 75 -75T94 0V240Q94 277 119 301T189 334Q93 346 93 431V612Q93 677 75 700T15 724V842Q124 842 178 792T233 656V439Q233 410 253 400T306 386V281Q275 283 255 269T234 228V-38Q234
-120 183 -165T15 -210V-98Z" />
<glyph unicode="~" glyph-name="asciitilde" horiz-adv-x="419" d="M38 586Q59 609 72 621T109 646T158 658Q180 658 212 641T264 623Q308 622 357 663L381 603Q321 531 268 531Q245 531 210 548T155 566Q137 566 121 561T92 549T62 531L38 586Z" />
</font>
</defs>
</svg>
